HIERARCHY
ROOT Hips
{
	OFFSET -13.091600 -28.302996 44.698402
	CHANNELS 6 Xposition Yposition Zposition Zrotation Xrotation Yrotation
	JOINT Chest
	{
		OFFSET -0.673000 0.623899 5.369202
		CHANNELS 6 Xposition Yposition Zposition Zrotation Xrotation Yrotation
		JOINT Chest2
		{
			OFFSET 0.000000 0.000000 4.415001
			CHANNELS 6 Xposition Yposition Zposition Zrotation Xrotation Yrotation
			JOINT Neck
			{
				OFFSET 0.000000 0.000002 10.273300
				CHANNELS 6 Xposition Yposition Zposition Zrotation Xrotation Yrotation
				JOINT Head
				{
					OFFSET 0.000000 0.000000 2.173897
					CHANNELS 6 Xposition Yposition Zposition Zrotation Xrotation Yrotation
					End Site
					{
						OFFSET 0.000000 0.000000 9.961800
					}
				}
			}
			JOINT LeftCollar
			{
				OFFSET 2.359900 -0.565201 5.928101
				CHANNELS 6 Xposition Yposition Zposition Zrotation Xrotation Yrotation
				JOINT LeftShoulder
				{
					OFFSET 5.443700 0.000000 0.000000
					CHANNELS 6 Xposition Yposition Zposition Zrotation Xrotation Yrotation
					JOINT LeftElbow
					{
						OFFSET 0.000000 0.000000 -10.615799
						CHANNELS 6 Xposition Yposition Zposition Zrotation Xrotation Yrotation
						JOINT LeftWrist
						{
							OFFSET 0.000000 -0.000002 -13.110302
							CHANNELS 6 Xposition Yposition Zposition Zrotation Xrotation Yrotation
							End Site
							{
								OFFSET 0.000000 0.000000 -2.173901
							}
						}
					}
				}
			}
			JOINT RightCollar
			{
				OFFSET -2.636600 -1.718800 6.889698
				CHANNELS 6 Xposition Yposition Zposition Zrotation Xrotation Yrotation
				JOINT RightShoulder
				{
					OFFSET -4.139101 0.000000 0.000000
					CHANNELS 6 Xposition Yposition Zposition Zrotation Xrotation Yrotation
					JOINT RightElbow
					{
						OFFSET 0.000000 0.000000 -10.471802
						CHANNELS 6 Xposition Yposition Zposition Zrotation Xrotation Yrotation
						JOINT RightWrist
						{
							OFFSET 0.000000 0.000000 -12.281898
							CHANNELS 6 Xposition Yposition Zposition Zrotation Xrotation Yrotation
							End Site
							{
								OFFSET 0.000000 -0.000002 -2.173901
							}
						}
					}
				}
			}
		}
	}
	JOINT LeftHip
	{
		OFFSET 2.273400 0.176701 -2.518002
		CHANNELS 6 Xposition Yposition Zposition Zrotation Xrotation Yrotation
		JOINT LeftKnee
		{
			OFFSET 0.000000 -0.000002 -20.456402
			CHANNELS 6 Xposition Yposition Zposition Zrotation Xrotation Yrotation
			JOINT LeftAnkle
			{
				OFFSET 0.000000 -0.000002 -16.635300
				CHANNELS 6 Xposition Yposition Zposition Zrotation Xrotation Yrotation
				End Site
				{
					OFFSET 0.000000 -8.812399 0.000001
				}
			}
		}
	}
	JOINT RightHip
	{
		OFFSET -1.914800 0.018101 -2.699299
		CHANNELS 6 Xposition Yposition Zposition Zrotation Xrotation Yrotation
		JOINT RightKnee
		{
			OFFSET 0.000000 -0.000002 -20.148901
			CHANNELS 6 Xposition Yposition Zposition Zrotation Xrotation Yrotation
			JOINT RightAnkle
			{
				OFFSET 0.000000 -0.000002 -16.838301
				CHANNELS 6 Xposition Yposition Zposition Zrotation Xrotation Yrotation
				End Site
				{
					OFFSET 0.000000 -8.328398 0.000001
				}
			}
		}
	}
}
MOTION
Frames: 10
Frame Time: 0.041667
-13.576201 10.832506 53.566303 542.689785 -5.388746 -7.738770 -0.672999 0.623895 5.369207 -2.851550 2.371391 6.855981 -0.000000 -0.000001 4.415007 -4.808358 -1.322955 -0.771908 0.000001 -0.000003 10.273302 0.403337 29.997706 5.412038 -0.000002 -0.000005 2.173891 0.464527 -0.315304 0.259761 2.359901 -0.565203 5.928107 17.640623 -15.135797 -30.358907 5.443694 0.000004 0.000000 -38.987918 -28.272999 -122.478310 0.000005 0.000000 -10.615796 601.332914 -157.861709 189.908123 0.000002 -0.000003 -13.110294 -165.251482 -162.463986 209.484497 -2.636601 -1.718803 6.889696 168.876687 -167.996084 202.230304 -4.139098 -0.000000 0.000003 90.458691 -406.108213 167.929900 -0.000001 -0.000006 -10.471804 -34.633113 -17.894080 -14.169040 -0.000001 -0.000005 -12.281898 17.758488 -16.690629 -8.272931 2.273401 0.176699 -2.518002 -122.439282 -142.992387 -172.354264 -0.000001 -0.000009 -20.456394 97.238739 124.586393 -131.210106 -0.000007 0.000003 -16.635298 13.610425 50.317799 23.261739 -1.914798 0.018102 -2.699297 166.286324 191.070799 193.965843 0.000000 -0.000003 -20.148901 16.126393 45.490945 -9.714590 -0.000001 -0.000002 -16.838308 -18.014875 51.095170 -3.151997
-13.694003 10.922606 51.996803 542.286913 -4.688037 -7.743354 -0.673002 0.623897 5.369210 -2.362365 1.959279 6.259293 0.000003 -0.000003 4.415000 -4.670607 -1.161854 -0.827881 -0.000001 -0.000002 10.273304 -0.006809 28.718145 5.846127 -0.000000 -0.000004 2.173894 0.342375 -0.195048 0.227268 2.359897 -0.565204 5.928093 17.401760 -14.638730 -28.709228 5.443695 0.000000 -0.000005 -33.997731 -26.171982 -118.770597 0.000006 -0.000002 -10.615788 601.618362 -159.609882 188.897665 0.000003 -0.000008 -13.110299 -168.425594 -162.904602 208.710131 -2.636602 -1.718802 6.889688 169.658552 -168.493459 201.806900 -4.139091 -0.000000 0.000003 81.688694 -409.755561 163.054265 -0.000002 0.000002 -10.471800 -35.768714 -17.072370 -13.546563 -0.000001 -0.000004 -12.281900 16.426287 -14.158957 -4.062816 2.273395 0.176703 -2.517997 -125.107250 -143.555946 -173.684689 0.000005 -0.000007 -20.456392 108.872416 124.852812 -141.095616 -0.000003 0.000003 -16.635298 10.751514 47.710114 19.517254 -1.914801 0.018102 -2.699296 166.403748 190.676793 194.449735 -0.000000 0.000001 -20.148901 16.931836 44.475187 -10.878560 -0.000002 -0.000001 -16.838305 -20.624815 48.025341 -2.472615
-13.801302 10.955210 50.306705 541.807324 -3.827931 -7.820853 -0.673001 0.623897 5.369207 -1.852502 1.806933 5.882272 0.000002 -0.000001 4.415000 -4.664965 -1.241333 -0.715159 -0.000002 -0.000002 10.273292 -0.221673 27.168083 5.963415 -0.000002 -0.000008 2.173889 0.272242 -0.097324 0.142164 2.359900 -0.565204 5.928090 17.218722 -14.139070 -27.316607 5.443694 -0.000003 -0.000006 -29.070825 -24.329964 -114.731236 -0.000000 -0.000000 -10.615795 602.067406 -161.472420 187.838603 0.000003 -0.000002 -13.110281 -171.993275 -163.479444 206.763022 -2.636598 -1.718804 6.889690 170.921386 -169.662637 200.824227 -4.139093 0.000001 -0.000002 70.578763 -413.353814 156.335585 0.000000 -0.000003 -10.471798 -37.257384 -16.458579 -13.099505 0.000002 -0.000003 -12.281894 16.604236 -11.774781 0.709753 2.273394 0.176699 -2.517999 -125.630784 -143.612090 -173.327648 -0.000007 -0.000007 -20.456394 114.477167 125.478935 -146.463011 -0.000001 0.000002 -16.635298 9.450238 44.649018 17.611974 -1.914801 0.018096 -2.699300 166.908363 191.241376 194.817704 -0.000001 0.000000 -20.148901 19.092440 45.589163 -13.170051 -0.000000 -0.000004 -16.838299 -23.448779 43.407485 -1.818052
-13.902903 10.931406 48.522205 541.240965 -2.987856 -7.799259 -0.673004 0.623898 5.369210 -1.319546 2.065152 5.518231 0.000001 0.000001 4.415004 -4.674067 -1.490068 -0.737435 -0.000002 -0.000002 10.273294 -0.591947 25.433693 6.147153 0.000001 -0.000003 2.173890 0.325090 0.174268 0.134613 2.359897 -0.565203 5.928101 16.971324 -13.561657 -25.885357 5.443696 -0.000005 -0.000000 -24.207886 -22.903556 -110.243256 -0.000002 -0.000002 -10.615801 602.243023 -163.151021 186.763682 0.000002 -0.000004 -13.110308 -174.902608 -163.889966 205.408910 -2.636603 -1.718804 6.889704 169.595578 -172.188864 198.773804 -4.139101 0.000000 0.000002 62.758531 -416.976929 151.040440 -0.000002 -0.000005 -10.471796 -38.450540 -15.974072 -12.914200 0.000000 -0.000000 -12.281893 17.415690 -9.174600 6.763230 2.273391 0.176700 -2.517997 -124.200119 -143.071126 -171.686791 0.000004 -0.000003 -20.456398 114.620942 125.480465 -147.614335 -0.000002 0.000001 -16.635300 9.787114 41.121154 16.546936 -1.914802 0.018101 -2.699289 164.863923 193.500530 194.396446 0.000001 -0.000010 -20.148903 25.832943 48.839193 -17.104940 -0.000001 -0.000005 -16.838305 -26.347795 37.056423 -1.248553
-14.004999 10.859709 46.681400 540.683130 -2.435987 -7.810741 -0.673000 0.623896 5.369211 -0.894175 2.967546 5.291339 0.000003 -0.000001 4.415010 -4.749372 -1.903185 -0.794703 -0.000002 -0.000002 10.273304 -0.822160 23.596676 6.219725 0.000000 -0.000002 2.173898 0.379186 0.541706 0.179611 2.359896 -0.565201 5.928111 16.760296 -13.100999 -24.562825 5.443696 0.000000 -0.000002 -19.454310 -21.656201 -105.107056 0.000006 -0.000001 -10.615791 602.236794 -164.431572 185.786131 0.000002 0.000002 -13.110281 -176.335267 -164.512947 202.927283 -2.636602 -1.718803 6.889712 170.595818 -172.026483 197.077049 -4.139099 -0.000001 0.000001 47.549680 -418.573991 138.022946 0.000000 -0.000001 -10.471792 -39.343604 -15.857732 -13.113824 0.000005 0.000001 -12.281898 18.326810 -5.880549 14.080887 2.273398 0.176700 -2.517995 -121.219793 -142.300817 -169.063971 -0.000005 -0.000000 -20.456398 109.840158 124.882564 -144.748142 -0.000008 -0.000001 -16.635296 12.418174 37.094850 15.731732 -1.914800 0.018099 -2.699285 160.010432 197.156716 193.010149 0.000002 -0.000006 -20.148909 36.897324 53.859607 -22.799279 0.000000 -0.000004 -16.838299 -28.444861 29.489864 -0.921209
-14.107702 10.755007 44.830105 540.141851 -2.274361 -7.781224 -0.672999 0.623901 5.369208 -0.533066 4.516857 5.109662 0.000002 0.000001 4.415016 -4.849153 -2.459075 -0.868874 0.000001 -0.000001 10.273312 -1.081786 21.787557 6.202584 -0.000001 -0.000003 2.173900 0.488464 0.980622 0.255311 2.359899 -0.565205 5.928108 16.554121 -12.596898 -23.181532 5.443700 -0.000005 -0.000006 -14.984412 -20.456910 -99.676407 0.000005 -0.000002 -10.615791 601.878346 -165.275470 184.933218 0.000003 -0.000000 -13.110295 -175.780287 -165.536396 199.537570 -2.636600 -1.718801 6.889712 170.702929 -171.104790 194.646540 -4.139084 -0.000006 0.000000 33.192435 -417.852559 124.216306 -0.000003 0.000003 -10.471789 -39.658366 -15.892691 -13.457635 0.000001 -0.000006 -12.281896 18.543812 -2.376815 21.829524 2.273401 0.176707 -2.518009 -117.027587 -141.429544 -165.770972 0.000000 0.000000 -20.456398 99.815920 124.584303 -137.364079 -0.000004 -0.000001 -16.635300 17.308915 32.359080 15.541110 -1.914797 0.018103 -2.699303 153.295304 201.311192 190.521379 0.000006 0.000000 -20.148903 52.719403 59.198452 -31.847550 -0.000000 0.000000 -16.838303 -30.445479 21.643951 -0.810744
-14.204700 10.637205 43.013309 540.131469 -2.475262 -7.674459 -0.673002 0.623897 5.369206 -0.766633 6.421563 4.948396 0.000002 0.000001 4.415004 -4.832307 -3.028385 -0.936420 -0.000000 -0.000003 10.273302 -1.461206 20.138287 6.141718 -0.000002 -0.000005 2.173899 0.666959 1.366156 0.312927 2.359900 -0.565204 5.928107 16.294962 -12.087769 -21.777780 5.443695 -0.000004 0.000001 -11.021059 -19.067359 -94.164970 -0.000000 -0.000003 -10.615796 601.061128 -165.828674 184.194069 0.000004 -0.000005 -13.110296 -173.382166 -166.833040 196.686007 -2.636601 -1.718803 6.889714 171.712212 -170.961138 192.584615 -4.139101 0.000002 0.000008 19.246269 -415.996387 111.419783 -0.000006 0.000001 -10.471796 -39.214790 -16.113514 -13.804854 0.000001 -0.000006 -12.281898 17.556755 1.381980 29.257030 2.273398 0.176702 -2.518002 -112.284888 -140.492033 -161.857779 0.000004 -0.000007 -20.456398 86.114813 125.489331 -126.572162 -0.000011 0.000000 -16.635294 23.631765 26.666783 16.431955 -1.914800 0.018101 -2.699292 144.540641 205.468155 186.745828 0.000003 -0.000002 -20.148903 75.076196 63.109800 -46.558743 -0.000001 -0.000002 -16.838301 -33.224817 13.978790 -0.956337
-14.284005 10.521410 41.266106 540.141632 -3.003035 -7.425024 -0.672999 0.623899 5.369210 -1.038512 8.618421 4.722929 0.000001 0.000000 4.415000 -4.646489 -3.549399 -0.994496 -0.000000 -0.000002 10.273303 -1.991522 18.625202 6.013120 -0.000002 -0.000006 2.173895 0.860032 1.656785 0.364015 2.359901 -0.565205 5.928105 15.977233 -11.761748 -20.283947 5.443699 -0.000008 -0.000002 -7.890571 -17.001345 -88.939110 -0.000001 0.000001 -10.615794 599.195994 -166.219156 183.401562 0.000000 -0.000004 -13.110293 -168.808481 -168.449827 193.381848 -2.636601 -1.718804 6.889699 171.768876 -170.175666 189.341423 -4.139105 -0.000005 0.000005 9.660360 -412.317046 102.047015 -0.000003 0.000006 -10.471797 -38.939141 -16.216474 -14.584296 0.000000 -0.000004 -12.281898 16.275557 4.734998 36.438957 2.273402 0.176699 -2.517999 -106.628194 -139.501710 -157.428156 -0.000002 -0.000006 -20.456402 70.219160 129.769701 -114.031770 -0.000005 -0.000002 -16.635296 32.042774 21.002869 18.283016 -1.914797 0.018102 -2.699296 134.752269 208.844017 181.736362 0.000001 -0.000005 -20.148903 101.561867 64.044847 -65.315364 -0.000000 0.000000 -16.838299 -36.554141 7.422567 -1.617573
-14.334201 10.409903 39.610195 540.151795 -3.495179 -7.095008 -0.672999 0.623900 5.369209 -1.324610 10.653966 4.555689 -0.000001 0.000001 4.415005 -4.223408 -3.982250 -1.025688 -0.000000 -0.000003 10.273303 -2.917454 17.239418 5.853449 -0.000001 -0.000002 2.173899 1.153857 1.884721 0.372209 2.359902 -0.565202 5.928104 15.592933 -11.534153 -18.667189 5.443693 -0.000001 0.000006 -5.833370 -14.349505 -84.410845 0.000000 -0.000000 -10.615790 596.609265 -166.590800 182.622279 0.000001 -0.000012 -13.110290 -162.523231 -170.238790 189.813498 -2.636603 -1.718803 6.889701 171.514028 -169.424345 186.091209 -4.139097 -0.000003 0.000001 2.636190 -408.007005 94.500715 -0.000001 0.000008 -10.471798 -37.240292 -16.738528 -14.793406 -0.000000 0.000001 -12.281893 13.580036 7.493121 42.219527 2.273398 0.176705 -2.518000 -100.129528 -138.486648 -152.172585 0.000002 0.000002 -20.456396 57.083077 136.142759 -103.803712 -0.000005 0.000002 -16.635298 40.231358 16.237105 21.307906 -1.914797 0.018104 -2.699296 124.775289 211.350587 175.762679 -0.000004 -0.000003 -20.148903 126.381627 61.673726 -83.085379 0.000001 -0.000002 -16.838301 -40.095816 2.390502 -2.868505
-14.348704 10.307013 38.051605 540.837929 -3.725040 -6.750664 -0.673002 0.623899 5.369212 -2.130179 12.156425 4.536722 0.000002 -0.000000 4.414999 -3.730469 -4.315330 -1.039783 -0.000001 -0.000007 10.273302 -4.129599 15.981452 5.666918 -0.000002 -0.000006 2.173900 1.501818 2.010226 0.301612 2.359901 -0.565202 5.928100 15.049808 -11.199039 -16.890486 5.443696 -0.000004 0.000004 -4.703163 -11.672850 -80.796323 -0.000004 -0.000002 -10.615798 593.730204 -166.988071 182.032874 0.000003 -0.000002 -13.110289 -156.483992 -172.074172 185.138315 -2.636602 -1.718804 6.889708 171.622259 -169.061211 182.859068 -4.139098 -0.000002 -0.000002 -3.307957 -403.892909 88.549141 -0.000005 -0.000010 -10.471795 -35.805539 -17.182845 -15.399618 0.000001 -0.000008 -12.281893 11.660988 9.425513 46.885062 2.273399 0.176703 -2.518002 -93.360292 -137.614638 -145.820564 -0.000000 -0.000001 -20.456398 47.112920 144.163013 -96.118998 -0.000005 0.000001 -16.635298 48.166593 12.699337 25.054146 -1.914798 0.018100 -2.699292 114.960649 213.034625 169.291170 0.000007 -0.000002 -20.148907 145.315703 56.365108 -96.421931 0.000000 -0.000000 -16.838303 -44.171749 -0.955950 -4.867160
